<svg xmlns="http://www.w3.org/2000/svg" viewBox="0 0 1024 1024" width="1024" height="1024" role="img" aria-label="Pier app icon — macOS desktop">
  <defs>
    <linearGradient id="bg" x1="0" y1="0" x2="0" y2="1">
      <stop offset="0" stop-color="#241f30"/>
      <stop offset="1" stop-color="#0c0b12"/>
    </linearGradient>
    <linearGradient id="vio" x1="0" y1="0" x2="0" y2="1">
      <stop offset="0" stop-color="#c6b8ff"/>
      <stop offset="1" stop-color="#6a51e0"/>
    </linearGradient>
    <radialGradient id="orb" cx="0.5" cy="0.42" r="0.6">
      <stop offset="0" stop-color="#efeaff"/>
      <stop offset="0.55" stop-color="#9d8bff"/>
      <stop offset="1" stop-color="#6a51e0"/>
    </radialGradient>
    <linearGradient id="rim" x1="0" y1="0" x2="0" y2="1">
      <stop offset="0" stop-color="#ffffff" stop-opacity="0.22"/>
      <stop offset="0.05" stop-color="#ffffff" stop-opacity="0"/>
    </linearGradient>
    <linearGradient id="ishadow" x1="0" y1="0" x2="0" y2="1">
      <stop offset="0.86" stop-color="#000000" stop-opacity="0"/>
      <stop offset="1" stop-color="#000000" stop-opacity="0.30"/>
    </linearGradient>
    <clipPath id="body"><path d="M 924.00 512.00 L 923.77 638.60 L 923.10 678.95 L 921.96 708.17 L 920.37 731.81 L 918.33 751.94 L 915.81 769.57 L 912.83 785.29 L 909.36 799.49 L 905.41 812.41 L 900.96 824.24 L 896.00 835.10 L 890.51 845.11 L 884.48 854.33 L 877.87 862.83 L 870.67 870.67 L 862.83 877.87 L 854.33 884.48 L 845.11 890.51 L 835.10 896.00 L 824.24 900.96 L 812.41 905.41 L 799.49 909.36 L 785.29 912.83 L 769.57 915.81 L 751.94 918.33 L 731.81 920.37 L 708.17 921.96 L 678.95 923.10 L 638.60 923.77 L 512.00 924.00 L 385.40 923.77 L 345.05 923.10 L 315.83 921.96 L 292.19 920.37 L 272.06 918.33 L 254.43 915.81 L 238.71 912.83 L 224.51 909.36 L 211.59 905.41 L 199.76 900.96 L 188.90 896.00 L 178.89 890.51 L 169.67 884.48 L 161.17 877.87 L 153.33 870.67 L 146.13 862.83 L 139.52 854.33 L 133.49 845.11 L 128.00 835.10 L 123.04 824.24 L 118.59 812.41 L 114.64 799.49 L 111.17 785.29 L 108.19 769.57 L 105.67 751.94 L 103.63 731.81 L 102.04 708.17 L 100.90 678.95 L 100.23 638.60 L 100.00 512.00 L 100.23 385.40 L 100.90 345.05 L 102.04 315.83 L 103.63 292.19 L 105.67 272.06 L 108.19 254.43 L 111.17 238.71 L 114.64 224.51 L 118.59 211.59 L 123.04 199.76 L 128.00 188.90 L 133.49 178.89 L 139.52 169.67 L 146.13 161.17 L 153.33 153.33 L 161.17 146.13 L 169.67 139.52 L 178.89 133.49 L 188.90 128.00 L 199.76 123.04 L 211.59 118.59 L 224.51 114.64 L 238.71 111.17 L 254.43 108.19 L 272.06 105.67 L 292.19 103.63 L 315.83 102.04 L 345.05 100.90 L 385.40 100.23 L 512.00 100.00 L 638.60 100.23 L 678.95 100.90 L 708.17 102.04 L 731.81 103.63 L 751.94 105.67 L 769.57 108.19 L 785.29 111.17 L 799.49 114.64 L 812.41 118.59 L 824.24 123.04 L 835.10 128.00 L 845.11 133.49 L 854.33 139.52 L 862.83 146.13 L 870.67 153.33 L 877.87 161.17 L 884.48 169.67 L 890.51 178.89 L 896.00 188.90 L 900.96 199.76 L 905.41 211.59 L 909.36 224.51 L 912.83 238.71 L 915.81 254.43 L 918.33 272.06 L 920.37 292.19 L 921.96 315.83 L 923.10 345.05 L 923.77 385.40 Z"/></clipPath>
    <filter id="drop" x="-20%" y="-20%" width="140%" height="150%">
      <feDropShadow dx="0" dy="22" stdDeviation="22" flood-color="#000000" flood-opacity="0.30"/>
    </filter>
    <filter id="fg" x="-25%" y="-25%" width="150%" height="150%">
      <feDropShadow dx="0" dy="7" stdDeviation="10" flood-color="#000000" flood-opacity="0.32"/>
    </filter>
  </defs>
  <!-- plate body + baked drop shadow -->
  <path d="M 924.00 512.00 L 923.77 638.60 L 923.10 678.95 L 921.96 708.17 L 920.37 731.81 L 918.33 751.94 L 915.81 769.57 L 912.83 785.29 L 909.36 799.49 L 905.41 812.41 L 900.96 824.24 L 896.00 835.10 L 890.51 845.11 L 884.48 854.33 L 877.87 862.83 L 870.67 870.67 L 862.83 877.87 L 854.33 884.48 L 845.11 890.51 L 835.10 896.00 L 824.24 900.96 L 812.41 905.41 L 799.49 909.36 L 785.29 912.83 L 769.57 915.81 L 751.94 918.33 L 731.81 920.37 L 708.17 921.96 L 678.95 923.10 L 638.60 923.77 L 512.00 924.00 L 385.40 923.77 L 345.05 923.10 L 315.83 921.96 L 292.19 920.37 L 272.06 918.33 L 254.43 915.81 L 238.71 912.83 L 224.51 909.36 L 211.59 905.41 L 199.76 900.96 L 188.90 896.00 L 178.89 890.51 L 169.67 884.48 L 161.17 877.87 L 153.33 870.67 L 146.13 862.83 L 139.52 854.33 L 133.49 845.11 L 128.00 835.10 L 123.04 824.24 L 118.59 812.41 L 114.64 799.49 L 111.17 785.29 L 108.19 769.57 L 105.67 751.94 L 103.63 731.81 L 102.04 708.17 L 100.90 678.95 L 100.23 638.60 L 100.00 512.00 L 100.23 385.40 L 100.90 345.05 L 102.04 315.83 L 103.63 292.19 L 105.67 272.06 L 108.19 254.43 L 111.17 238.71 L 114.64 224.51 L 118.59 211.59 L 123.04 199.76 L 128.00 188.90 L 133.49 178.89 L 139.52 169.67 L 146.13 161.17 L 153.33 153.33 L 161.17 146.13 L 169.67 139.52 L 178.89 133.49 L 188.90 128.00 L 199.76 123.04 L 211.59 118.59 L 224.51 114.64 L 238.71 111.17 L 254.43 108.19 L 272.06 105.67 L 292.19 103.63 L 315.83 102.04 L 345.05 100.90 L 385.40 100.23 L 512.00 100.00 L 638.60 100.23 L 678.95 100.90 L 708.17 102.04 L 731.81 103.63 L 751.94 105.67 L 769.57 108.19 L 785.29 111.17 L 799.49 114.64 L 812.41 118.59 L 824.24 123.04 L 835.10 128.00 L 845.11 133.49 L 854.33 139.52 L 862.83 146.13 L 870.67 153.33 L 877.87 161.17 L 884.48 169.67 L 890.51 178.89 L 896.00 188.90 L 900.96 199.76 L 905.41 211.59 L 909.36 224.51 L 912.83 238.71 L 915.81 254.43 L 918.33 272.06 L 920.37 292.19 L 921.96 315.83 L 923.10 345.05 L 923.77 385.40 Z" fill="url(#bg)" filter="url(#drop)"/>
  <g clip-path="url(#body)">
    <!-- top edge highlight (rim light) + bottom inner shadow -->
    <rect width="1024" height="1024" fill="url(#rim)"/>
    <rect width="1024" height="1024" fill="url(#ishadow)"/>
    <!-- foreground mark, floating with its own shadow -->
      <g transform="translate(115.2 98) scale(1.55)" filter="url(#fg)">
        <path d="M 124 112 L 124 376 L 388 376 L 388 112" fill="none" stroke="url(#vio)" stroke-width="34" stroke-linecap="round" stroke-linejoin="round"/>
        <circle cx="256" cy="240" r="92" fill="#8a76f0" fill-opacity="0.16"/>
        <circle cx="256" cy="240" r="64" fill="url(#orb)"/>
        <ellipse cx="256" cy="406" rx="138" ry="9" fill="#8a76f0" fill-opacity="0.32"/>
        <ellipse cx="256" cy="432" rx="90" ry="7" fill="#8a76f0" fill-opacity="0.18"/>
      </g>
  </g>
  <!-- crisp outer rim on the plate edge -->
  <path d="M 924.00 512.00 L 923.77 638.60 L 923.10 678.95 L 921.96 708.17 L 920.37 731.81 L 918.33 751.94 L 915.81 769.57 L 912.83 785.29 L 909.36 799.49 L 905.41 812.41 L 900.96 824.24 L 896.00 835.10 L 890.51 845.11 L 884.48 854.33 L 877.87 862.83 L 870.67 870.67 L 862.83 877.87 L 854.33 884.48 L 845.11 890.51 L 835.10 896.00 L 824.24 900.96 L 812.41 905.41 L 799.49 909.36 L 785.29 912.83 L 769.57 915.81 L 751.94 918.33 L 731.81 920.37 L 708.17 921.96 L 678.95 923.10 L 638.60 923.77 L 512.00 924.00 L 385.40 923.77 L 345.05 923.10 L 315.83 921.96 L 292.19 920.37 L 272.06 918.33 L 254.43 915.81 L 238.71 912.83 L 224.51 909.36 L 211.59 905.41 L 199.76 900.96 L 188.90 896.00 L 178.89 890.51 L 169.67 884.48 L 161.17 877.87 L 153.33 870.67 L 146.13 862.83 L 139.52 854.33 L 133.49 845.11 L 128.00 835.10 L 123.04 824.24 L 118.59 812.41 L 114.64 799.49 L 111.17 785.29 L 108.19 769.57 L 105.67 751.94 L 103.63 731.81 L 102.04 708.17 L 100.90 678.95 L 100.23 638.60 L 100.00 512.00 L 100.23 385.40 L 100.90 345.05 L 102.04 315.83 L 103.63 292.19 L 105.67 272.06 L 108.19 254.43 L 111.17 238.71 L 114.64 224.51 L 118.59 211.59 L 123.04 199.76 L 128.00 188.90 L 133.49 178.89 L 139.52 169.67 L 146.13 161.17 L 153.33 153.33 L 161.17 146.13 L 169.67 139.52 L 178.89 133.49 L 188.90 128.00 L 199.76 123.04 L 211.59 118.59 L 224.51 114.64 L 238.71 111.17 L 254.43 108.19 L 272.06 105.67 L 292.19 103.63 L 315.83 102.04 L 345.05 100.90 L 385.40 100.23 L 512.00 100.00 L 638.60 100.23 L 678.95 100.90 L 708.17 102.04 L 731.81 103.63 L 751.94 105.67 L 769.57 108.19 L 785.29 111.17 L 799.49 114.64 L 812.41 118.59 L 824.24 123.04 L 835.10 128.00 L 845.11 133.49 L 854.33 139.52 L 862.83 146.13 L 870.67 153.33 L 877.87 161.17 L 884.48 169.67 L 890.51 178.89 L 896.00 188.90 L 900.96 199.76 L 905.41 211.59 L 909.36 224.51 L 912.83 238.71 L 915.81 254.43 L 918.33 272.06 L 920.37 292.19 L 921.96 315.83 L 923.10 345.05 L 923.77 385.40 Z" fill="none" stroke="#ffffff" stroke-opacity="0.05" stroke-width="1.5"/>
</svg>
