<!-- Pier app icon · 03 Minimal · reference-locked
     Approved geometry is defined in a 412×412 coordinate system and mapped
     unchanged into the 824×824 macOS visible area. Do not redraw from memory. -->
<svg xmlns="http://www.w3.org/2000/svg" viewBox="0 0 1024 1024" width="1024" height="1024" role="img" aria-label="Pier app icon — terminal docked in a persistent berth">
  <svg x="100" y="100" width="824" height="824" viewBox="0 0 412 412">
    <defs><linearGradient id="plate" x1="0.5" y1="0" x2="0.5" y2="1"><stop offset="0" stop-color="#20233b"/><stop offset="0.48" stop-color="#171a2a"/><stop offset="1" stop-color="#06080d"/></linearGradient><radialGradient id="plateGlow" cx="0.5" cy="0.03" r="0.8"><stop offset="0" stop-color="#343858" stop-opacity="0.22"/><stop offset="0.65" stop-color="#1a1d31" stop-opacity="0.05"/><stop offset="1" stop-color="#000000" stop-opacity="0"/></radialGradient><linearGradient id="plateRim" x1="0.5" y1="0" x2="0.5" y2="1"><stop offset="0" stop-color="#6c7082" stop-opacity="0.56"/><stop offset="0.45" stop-color="#3a3e50" stop-opacity="0.45"/><stop offset="1" stop-color="#171a24" stop-opacity="0.4"/></linearGradient><linearGradient id="berth" x1="0.05" y1="0.02" x2="0.96" y2="1"><stop offset="0" stop-color="#c5afff"/><stop offset="0.46" stop-color="#9574ff"/><stop offset="1" stop-color="#6578ff"/></linearGradient><linearGradient id="terminal" x1="0.08" y1="0" x2="0.95" y2="1"><stop offset="0" stop-color="#c9b8ff"/><stop offset="0.48" stop-color="#9673ff"/><stop offset="1" stop-color="#6279ff"/></linearGradient><linearGradient id="screen" x1="0.5" y1="0" x2="0.5" y2="1"><stop offset="0" stop-color="#121722"/><stop offset="1" stop-color="#090b11"/></linearGradient></defs>
    <rect x="1" y="1" width="410" height="410" rx="91" fill="url(#plate)"/><rect x="1" y="1" width="410" height="410" rx="91" fill="url(#plateGlow)"/><rect x="1" y="1" width="410" height="410" rx="91" fill="none" stroke="url(#plateRim)" stroke-width="2"/>
    <path d="M95 177H135V251C135 286 155 309 187 309H225C257 309 277 286 277 251V177H317V257C317 312 281 348 244 348H168C131 348 95 312 95 257Z" fill="url(#berth)"/><path d="M116 186V253C116 299 145 327 187 327H225C267 327 296 299 296 253V186" fill="none" stroke="#ffffff" stroke-opacity="0.14" stroke-width="4" stroke-linecap="round"/>
    <rect x="121" y="102" width="170" height="152" rx="30" fill="url(#terminal)"/><rect x="136" y="117" width="140" height="123" rx="20" fill="url(#screen)"/><path d="M157 117H255" fill="none" stroke="#ffffff" stroke-opacity="0.12" stroke-width="2" stroke-linecap="round"/>
    <path d="M170 153L199 181L170 209" fill="none" stroke="#f7f7fb" stroke-width="14" stroke-linecap="round" stroke-linejoin="round"/><path d="M211 202H242" fill="none" stroke="#f7f7fb" stroke-width="14" stroke-linecap="round"/>
  </svg>
</svg>
